<svg width="20" height="20" viewBox="0 0 20 20" fill="none" xmlns="http://www.w3.org/2000/svg">
<path d="M13 12C12.8022 12 12.6089 12.0586 12.4444 12.1685C12.28 12.2784 12.1518 12.4346 12.0761 12.6173C12.0004 12.8 11.9806 13.0011 12.0192 13.1951C12.0578 13.3891 12.153 13.5673 12.2929 13.7071C12.4327 13.847 12.6109 13.9422 12.8049 13.9808C12.9989 14.0194 13.2 13.9996 13.3827 13.9239C13.5654 13.8482 13.7216 13.72 13.8315 13.5556C13.9414 13.3911 14 13.1978 14 13C14 12.7348 13.8946 12.4804 13.7071 12.2929C13.5196 12.1054 13.2652 12 13 12ZM7 6C6.80222 6 6.60888 6.05865 6.44443 6.16853C6.27998 6.27841 6.15181 6.43459 6.07612 6.61732C6.00043 6.80004 5.98063 7.00111 6.01921 7.19509C6.0578 7.38907 6.15304 7.56725 6.29289 7.70711C6.43275 7.84696 6.61093 7.9422 6.80491 7.98079C6.99889 8.01937 7.19996 7.99957 7.38268 7.92388C7.56541 7.84819 7.72159 7.72002 7.83147 7.55557C7.94135 7.39112 8 7.19778 8 7C8 6.73478 7.89464 6.48043 7.70711 6.29289C7.51957 6.10536 7.26522 6 7 6ZM7 12C6.80222 12 6.60888 12.0586 6.44443 12.1685C6.27998 12.2784 6.15181 12.4346 6.07612 12.6173C6.00043 12.8 5.98063 13.0011 6.01921 13.1951C6.0578 13.3891 6.15304 13.5673 6.29289 13.7071C6.43275 13.847 6.61093 13.9422 6.80491 13.9808C6.99889 14.0194 7.19996 13.9996 7.38268 13.9239C7.56541 13.8482 7.72159 13.72 7.83147 13.5556C7.94135 13.3911 8 13.1978 8 13C8 12.7348 7.89464 12.4804 7.70711 12.2929C7.51957 12.1054 7.26522 12 7 12ZM13 6C12.8022 6 12.6089 6.05865 12.4444 6.16853C12.28 6.27841 12.1518 6.43459 12.0761 6.61732C12.0004 6.80004 11.9806 7.00111 12.0192 7.19509C12.0578 7.38907 12.153 7.56725 12.2929 7.70711C12.4327 7.84696 12.6109 7.9422 12.8049 7.98079C12.9989 8.01937 13.2 7.99957 13.3827 7.92388C13.5654 7.84819 13.7216 7.72002 13.8315 7.55557C13.9414 7.39112 14 7.19778 14 7C14 6.73478 13.8946 6.48043 13.7071 6.29289C13.5196 6.10536 13.2652 6 13 6ZM15 0H5C3.67392 0 2.40215 0.526784 1.46447 1.46447C0.526784 2.40215 0 3.67392 0 5V15C0 16.3261 0.526784 17.5979 1.46447 18.5355C2.40215 19.4732 3.67392 20 5 20H15C16.3261 20 17.5979 19.4732 18.5355 18.5355C19.4732 17.5979 20 16.3261 20 15V5C20 3.67392 19.4732 2.40215 18.5355 1.46447C17.5979 0.526784 16.3261 0 15 0ZM18 15C18 15.7956 17.6839 16.5587 17.1213 17.1213C16.5587 17.6839 15.7956 18 15 18H5C4.20435 18 3.44129 17.6839 2.87868 17.1213C2.31607 16.5587 2 15.7956 2 15V5C2 4.20435 2.31607 3.44129 2.87868 2.87868C3.44129 2.31607 4.20435 2 5 2H15C15.7956 2 16.5587 2.31607 17.1213 2.87868C17.6839 3.44129 18 4.20435 18 5V15Z" fill="#09101D"/>
</svg>
